<svg xmlns="http://www.w3.org/2000/svg" width="32" height="32" viewBox="0 0 32 32"><path style="text-indent:0;text-align:start;line-height:normal;text-transform:none;block-progression:tb;marker:none;-inkscape-font-specification:Sans" d="M 2.34375,6 C 2.1372266,6.0676614 1.9892205,6.282943 2,6.5 L 2,21 0.5,21 C 0.4483446,20.9918 0.39540537,20.9918 0.34375,21 0.13722664,21.067661 -0.01077946,21.282943 0,21.5 0,22.9086 1.26943,24 2.75,24 l 20.25,0 0,1.5 c 2.6e-5,0.261792 0.238208,0.499974 0.5,0.5 l 8,0 c 0.261792,-2.6e-5 0.499974,-0.238208 0.5,-0.5 l 0,-13 C 31.999974,12.238208 31.761792,12.000026 31.5,12 L 27,12 27,6.5 C 26.999974,6.2382078 26.761792,6.0000262 26.5,6 L 2.5,6 C 2.4483446,5.9918293 2.3954054,5.9918293 2.34375,6 z M 3,7 l 23,0 0,5 -2.5,0 C 23.44834,11.9918 23.395405,11.9918 23.34375,12 23.137227,12.06766 22.989221,12.282943 23,12.5 l 0,3.5 -3.3125,0 1.15625,-1.15625 c 0.332058,-0.280539 0.02234,-0.94762 -0.40625,-0.875 -0.107432,0.0195 -0.207936,0.07534 -0.28125,0.15625 L 18.25,16.03125 C 17.751825,16.529425 18.074163,17 18.625,17 l 6.875,0 c 0.264156,0.0037 0.50712,-0.235818 0.50712,-0.5 0,-0.264182 -0.242964,-0.503735 -0.50712,-0.5 l -1.5,0 0,-1 7,0 0,8 -7,0 0,-1 0,-1 0,-2 2.28125,0 -1.125,1.125 c -0.220913,0.170884 -0.248455,0.539345 -0.0554,0.741173 0.193053,0.201828 0.562374,0.190681 0.742903,-0.02242 l 1.9375,-1.90625 c 0.06282,-0.03962 0.116635,-0.09343 0.15625,-0.15625 C 28.027263,18.691487 28.135051,18 27.5,18 l -7,0 c -0.05166,-0.0082 -0.104595,-0.0082 -0.15625,0 -0.261799,0.04091 -0.462781,0.316326 -0.421875,0.578125 C 19.962781,18.839924 20.238201,19.040906 20.5,19 l 2.5,0 0,2 -20,0 z m 21,6 7,0 0,1 -7,0 z M 1.25,22 2.375,22 23,22 23,23 2.75,23 C 1.99283,23 1.501,22.5422 1.25,22 z m 22.75,2 7,0 0,1 -7,0 z" color="#000" enable-background="accumulate" font-family="Sans" font-weight="400" overflow="visible"/></svg>